<svg width="58" height="58" viewBox="0 0 58 58" fill="none" xmlns="http://www.w3.org/2000/svg">
<g id="fluent:building-32-regular">
<path id="Vector" d="M15.6875 7.25H36.9844C38.235 7.25 39.25 8.265 39.25 9.51562V25.375C39.25 25.8557 39.441 26.3167 39.7809 26.6566C40.1208 26.9965 40.5818 27.1875 41.0625 27.1875H47.8594C49.11 27.1875 50.125 28.2025 50.125 29.4531V50.75H44.6875V44.4062C44.6875 43.6852 44.4011 42.9937 43.8912 42.4838C43.3813 41.9739 42.6898 41.6875 41.9688 41.6875H22.0312C21.3102 41.6875 20.6187 41.9739 20.1088 42.4838C19.5989 42.9937 19.3125 43.6852 19.3125 44.4062V50.75H13.875V9.0625C13.875 8.5818 14.066 8.12078 14.4059 7.78087C14.7458 7.44096 15.2068 7.25 15.6875 7.25ZM41.0625 50.75H33.8125V45.3125H41.0625V50.75ZM30.1875 50.75H22.9375V45.3125H30.1875V50.75ZM51.9375 54.375C52.4182 54.375 52.8792 54.184 53.2191 53.8441C53.559 53.5042 53.75 53.0432 53.75 52.5625V29.4531C53.75 28.6796 53.5976 27.9136 53.3016 27.1989C53.0056 26.4842 52.5717 25.8348 52.0247 25.2878C51.4777 24.7408 50.8283 24.3069 50.1136 24.0109C49.3989 23.7149 48.6329 23.5625 47.8594 23.5625H42.875V9.51562C42.875 8.74206 42.7226 7.97606 42.4266 7.26138C42.1306 6.5467 41.6967 5.89732 41.1497 5.35032C40.6027 4.80333 39.9533 4.36943 39.2386 4.0734C38.5239 3.77737 37.7579 3.625 36.9844 3.625H15.6875C14.2454 3.625 12.8623 4.19788 11.8426 5.21761C10.8229 6.23734 10.25 7.62039 10.25 9.0625V52.5625C10.25 53.0432 10.441 53.5042 10.7809 53.8441C11.1208 54.184 11.5818 54.375 12.0625 54.375H51.9375ZM22.0312 18.125C22.7523 18.125 23.4438 17.8386 23.9537 17.3287C24.4636 16.8188 24.75 16.1273 24.75 15.4062C24.75 14.6852 24.4636 13.9937 23.9537 13.4838C23.4438 12.9739 22.7523 12.6875 22.0312 12.6875C21.3102 12.6875 20.6187 12.9739 20.1088 13.4838C19.5989 13.9937 19.3125 14.6852 19.3125 15.4062C19.3125 16.1273 19.5989 16.8188 20.1088 17.3287C20.6187 17.8386 21.3102 18.125 22.0312 18.125ZM22.0312 27.1875C22.7523 27.1875 23.4438 26.9011 23.9537 26.3912C24.4636 25.8813 24.75 25.1898 24.75 24.4688C24.75 23.7477 24.4636 23.0562 23.9537 22.5463C23.4438 22.0364 22.7523 21.75 22.0312 21.75C21.3102 21.75 20.6187 22.0364 20.1088 22.5463C19.5989 23.0562 19.3125 23.7477 19.3125 24.4688C19.3125 25.1898 19.5989 25.8813 20.1088 26.3912C20.6187 26.9011 21.3102 27.1875 22.0312 27.1875ZM24.75 33.5312C24.75 34.2523 24.4636 34.9438 23.9537 35.4537C23.4438 35.9636 22.7523 36.25 22.0312 36.25C21.3102 36.25 20.6187 35.9636 20.1088 35.4537C19.5989 34.9438 19.3125 34.2523 19.3125 33.5312C19.3125 32.8102 19.5989 32.1187 20.1088 31.6088C20.6187 31.0989 21.3102 30.8125 22.0312 30.8125C22.7523 30.8125 23.4438 31.0989 23.9537 31.6088C24.4636 32.1187 24.75 32.8102 24.75 33.5312ZM31.0938 18.125C31.8148 18.125 32.5063 17.8386 33.0162 17.3287C33.5261 16.8188 33.8125 16.1273 33.8125 15.4062C33.8125 14.6852 33.5261 13.9937 33.0162 13.4838C32.5063 12.9739 31.8148 12.6875 31.0938 12.6875C30.3727 12.6875 29.6812 12.9739 29.1713 13.4838C28.6614 13.9937 28.375 14.6852 28.375 15.4062C28.375 16.1273 28.6614 16.8188 29.1713 17.3287C29.6812 17.8386 30.3727 18.125 31.0938 18.125ZM33.8125 24.4688C33.8125 25.1898 33.5261 25.8813 33.0162 26.3912C32.5063 26.9011 31.8148 27.1875 31.0938 27.1875C30.3727 27.1875 29.6812 26.9011 29.1713 26.3912C28.6614 25.8813 28.375 25.1898 28.375 24.4688C28.375 23.7477 28.6614 23.0562 29.1713 22.5463C29.6812 22.0364 30.3727 21.75 31.0938 21.75C31.8148 21.75 32.5063 22.0364 33.0162 22.5463C33.5261 23.0562 33.8125 23.7477 33.8125 24.4688ZM31.0938 36.25C31.8148 36.25 32.5063 35.9636 33.0162 35.4537C33.5261 34.9438 33.8125 34.2523 33.8125 33.5312C33.8125 32.8102 33.5261 32.1187 33.0162 31.6088C32.5063 31.0989 31.8148 30.8125 31.0938 30.8125C30.3727 30.8125 29.6812 31.0989 29.1713 31.6088C28.6614 32.1187 28.375 32.8102 28.375 33.5312C28.375 34.2523 28.6614 34.9438 29.1713 35.4537C29.6812 35.9636 30.3727 36.25 31.0938 36.25ZM42.875 33.5312C42.875 34.2523 42.5886 34.9438 42.0787 35.4537C41.5688 35.9636 40.8773 36.25 40.1562 36.25C39.4352 36.25 38.7437 35.9636 38.2338 35.4537C37.7239 34.9438 37.4375 34.2523 37.4375 33.5312C37.4375 32.8102 37.7239 32.1187 38.2338 31.6088C38.7437 31.0989 39.4352 30.8125 40.1562 30.8125C40.8773 30.8125 41.5688 31.0989 42.0787 31.6088C42.5886 32.1187 42.875 32.8102 42.875 33.5312Z" fill="white"/>
</g>
</svg>
