<svg width="58" height="58" viewBox="0 0 58 58" fill="none" xmlns="http://www.w3.org/2000/svg">
<g id="fluent:chat-16-regular">
<path id="Vector" d="M21.75 25.375C21.75 24.8943 21.941 24.4332 22.2809 24.0933C22.6208 23.7534 23.0818 23.5625 23.5625 23.5625H34.4375C34.9182 23.5625 35.3792 23.7534 35.7191 24.0933C36.059 24.4332 36.25 24.8943 36.25 25.375C36.25 25.8557 36.059 26.3167 35.7191 26.6566C35.3792 26.9965 34.9182 27.1875 34.4375 27.1875H23.5625C23.0818 27.1875 22.6208 26.9965 22.2809 26.6566C21.941 26.3167 21.75 25.8557 21.75 25.375ZM23.5625 30.8125C23.0818 30.8125 22.6208 31.0034 22.2809 31.3433C21.941 31.6832 21.75 32.1443 21.75 32.625C21.75 33.1057 21.941 33.5667 22.2809 33.9066C22.6208 34.2465 23.0818 34.4375 23.5625 34.4375H30.8125C31.2932 34.4375 31.7542 34.2465 32.0941 33.9066C32.434 33.5667 32.625 33.1057 32.625 32.625C32.625 32.1443 32.434 31.6832 32.0941 31.3433C31.7542 31.0034 31.2932 30.8125 30.8125 30.8125H23.5625ZM7.25 29C7.25093 24.2115 8.83204 19.5572 11.7481 15.759C14.6641 11.9609 18.7521 9.23116 23.3778 7.99337C28.0035 6.75559 32.9084 7.07891 37.3316 8.91319C41.7548 10.7475 45.4491 13.9902 47.8413 18.1382C50.2335 22.2863 51.19 27.1079 50.5624 31.855C49.9347 36.6022 47.758 41.0095 44.3699 44.3933C40.9819 47.7772 36.5718 49.9484 31.8239 50.5701C27.076 51.1918 22.2556 50.2293 18.1105 47.8318L9.63525 50.6593C9.32213 50.7639 8.98641 50.7809 8.66431 50.7086C8.34221 50.6363 8.04598 50.4774 7.80757 50.2491C7.56916 50.0208 7.39764 49.7317 7.31152 49.413C7.2254 49.0943 7.22794 48.7582 7.31888 48.4408L9.89988 39.411C8.15631 36.2182 7.24499 32.6378 7.25 29ZM29 10.875C25.7998 10.8748 22.6566 11.7219 19.8898 13.3302C17.1231 14.9385 14.8316 17.2507 13.2481 20.0317C11.6646 22.8127 10.8457 25.9634 10.8746 29.1635C10.9035 32.3636 11.7791 35.499 13.4125 38.251C13.5382 38.4635 13.6191 38.6996 13.6502 38.9446C13.6814 39.1895 13.6622 39.4383 13.5938 39.6756L11.7486 46.1281L17.7589 44.1271C18.0141 44.0419 18.2851 44.0146 18.5523 44.0472C18.8194 44.0798 19.0759 44.1715 19.3031 44.3156C21.6785 45.8188 24.3709 46.749 27.1677 47.0325C29.9644 47.3161 32.7887 46.9452 35.4175 45.9492C38.0462 44.9533 40.4072 43.3595 42.3139 41.2939C44.2206 39.2284 45.6208 36.7476 46.4037 34.0478C47.1866 31.3479 47.3307 28.503 46.8248 25.7378C46.3189 22.9726 45.1767 20.3631 43.4885 18.1153C41.8004 15.8676 39.6126 14.0433 37.098 12.7867C34.5835 11.5301 31.8111 10.8756 29 10.875Z" fill="white"/>
</g>
</svg>
