<svg width="54" height="54" viewBox="0 0 54 54" fill="none" xmlns="http://www.w3.org/2000/svg">
<g id="icons8:idea">
<path id="Vector" d="M11.4969 4.06018L9.12094 6.43281L12.6562 9.96643L15.0289 7.59381L11.4969 4.06018ZM42.5047 4.06018L38.9694 7.59381L41.3438 9.96643L44.8774 6.43449L42.5047 4.06018ZM27 5.11318C26.4431 5.11993 25.8795 5.15199 25.3125 5.22118C25.2956 5.22118 25.2788 5.21781 25.2619 5.22118C18.4174 6.00587 12.9701 11.5358 12.0234 18.3499C11.2674 23.8343 13.5287 28.8074 17.2969 32.0102C18.8383 33.3257 19.8808 35.1309 20.25 37.1234V47.2484H24.0975C24.6847 48.2558 25.7563 48.9359 27 48.9359C28.2437 48.9359 29.3152 48.2558 29.9025 47.2484H33.75V40.4984H33.9086V38.4936C33.9086 36.0197 35.1945 33.5256 37.2836 31.5867C40.0781 28.7888 42.1875 24.8147 42.1875 20.2501C42.1875 11.9138 35.3261 5.03556 27 5.11318ZM27 8.48818C33.5222 8.39706 38.8125 13.7363 38.8125 20.2501C38.8125 23.7837 37.1756 26.8954 34.9093 29.1601L34.9633 29.2141C32.7111 31.2909 31.2548 34.0889 30.8458 37.1251H23.4647C23.0934 34.2327 21.8531 31.4331 19.5092 29.425C16.5274 26.8937 14.7504 23.08 15.3444 18.7735C16.0819 13.4579 20.3951 9.18343 25.6804 8.59787C26.1167 8.53703 26.5562 8.50097 26.9966 8.48987L27 8.48818ZM3.375 20.2501V23.6251H8.4375V20.2501H3.375ZM45.5625 20.2501V23.6251H50.625V20.2501H45.5625ZM12.6562 33.9087L9.12263 37.4406L11.4969 39.8149L15.0272 36.2813L12.6562 33.9087ZM41.3438 33.9087L38.9711 36.2813L42.5031 39.8149L44.8774 37.4406L41.3438 33.9087ZM23.625 40.5001H30.375V43.8751H23.625V40.5001Z" fill="white"/>
</g>
</svg>
