<svg width="54" height="54" viewBox="0 0 54 54" fill="none" xmlns="http://www.w3.org/2000/svg">
<g id="fluent:book-exclamation-mark-24-regular">
<path id="Vector" d="M29.5729 32.6458C29.5729 33.2978 29.3139 33.9231 28.8529 34.3841C28.3919 34.8451 27.7666 35.1041 27.1146 35.1041C26.4626 35.1041 25.8373 34.8451 25.3763 34.3841C24.9152 33.9231 24.6562 33.2978 24.6562 32.6458C24.6562 31.9938 24.9152 31.3685 25.3763 30.9075C25.8373 30.4465 26.4626 30.1875 27.1146 30.1875C27.7666 30.1875 28.3919 30.4465 28.8529 30.9075C29.3139 31.3685 29.5729 31.9938 29.5729 32.6458ZM25.2708 13.5937V25.8854C25.2708 26.3744 25.4651 26.8433 25.8109 27.1891C26.1566 27.5349 26.6256 27.7291 27.1146 27.7291C27.6036 27.7291 28.0725 27.5349 28.4183 27.1891C28.7641 26.8433 28.9583 26.3744 28.9583 25.8854V13.5937C28.9583 13.1047 28.7641 12.6358 28.4183 12.29C28.0725 11.9442 27.6036 11.75 27.1146 11.75C26.6256 11.75 26.1566 11.9442 25.8109 12.29C25.4651 12.6358 25.2708 13.1047 25.2708 13.5937ZM6.83333 8.06246C6.83333 6.43248 7.48083 4.86927 8.6334 3.7167C9.78597 2.56413 11.3492 1.91663 12.9792 1.91663H41.25C42.0571 1.91663 42.8563 2.07559 43.6019 2.38445C44.3475 2.69331 45.0251 3.14601 45.5958 3.7167C46.1664 4.28739 46.6191 4.9649 46.928 5.71055C47.2369 6.4562 47.3958 7.25538 47.3958 8.06246V43.0937C47.3958 43.5827 47.2016 44.0517 46.8558 44.3974C46.51 44.7432 46.0411 44.9375 45.5521 44.9375H10.5208C10.5208 45.5895 10.7798 46.2147 11.2409 46.6758C11.7019 47.1368 12.3272 47.3958 12.9792 47.3958H45.5521C46.0411 47.3958 46.51 47.59 46.8558 47.9358C47.2016 48.2816 47.3958 48.7506 47.3958 49.2395C47.3958 49.7285 47.2016 50.1975 46.8558 50.5433C46.51 50.889 46.0411 51.0833 45.5521 51.0833H12.9792C11.3492 51.0833 9.78597 50.4358 8.6334 49.2832C7.48083 48.1307 6.83333 46.5674 6.83333 44.9375V8.06246ZM43.7083 41.25V8.06246C43.7083 7.41047 43.4493 6.78518 42.9883 6.32416C42.5273 5.86313 41.902 5.60413 41.25 5.60413H12.9792C12.3272 5.60413 11.7019 5.86313 11.2409 6.32416C10.7798 6.78518 10.5208 7.41047 10.5208 8.06246V41.25H43.7083Z" fill="white"/>
</g>
</svg>
